PathFileType	4	(X/Y/Z)	/Users/itak/Documents/Research/Walk-IL/dataset/trc/00291_00010.trc
DataRate	CameraRate	NumFrames	NumMarkers	Units	OrigDataRate	OrigDataStartFrame	OrigNumFrames
100.000000	100.000000	4	54	mm	100.000000	492	656
Frame#	Time	RPSI			LPSI			L3			STRN			T10			C7			CLAV			RBAK			LBAK			LSHO			LUPA			LAEL			LAOL			LWTS			LWPS			LFRA			LHPS			LHTS			RSHO			RUPA			RAEL			RAOL			RWTS			RWPS			RFRA			RHTS			RHPS			RBHD			LFHD			RFHD			LBHD			RHIP			RASI			LASI			LKNE			LTHI			LANK			LTIP			LTOE			LMT1			LMT5			LHEE			RKNE			RTHI			RANK			RTIP			RTOE			RMT1			RMT5			RHEE			LHIP			RIFD			LIFD			*53			
		X1	Y1	Z1	X2	Y2	Z2	X3	Y3	Z3	X4	Y4	Z4	X5	Y5	Z5	X6	Y6	Z6	X7	Y7	Z7	X8	Y8	Z8	X9	Y9	Z9	X10	Y10	Z10	X11	Y11	Z11	X12	Y12	Z12	X13	Y13	Z13	X14	Y14	Z14	X15	Y15	Z15	X16	Y16	Z16	X17	Y17	Z17	X18	Y18	Z18	X19	Y19	Z19	X20	Y20	Z20	X21	Y21	Z21	X22	Y22	Z22	X23	Y23	Z23	X24	Y24	Z24	X25	Y25	Z25	X26	Y26	Z26	X27	Y27	Z27	X28	Y28	Z28	X29	Y29	Z29	X30	Y30	Z30	X31	Y31	Z31	X32	Y32	Z32	X33	Y33	Z33	X34	Y34	Z34	X35	Y35	Z35	X36	Y36	Z36	X37	Y37	Z37	X38	Y38	Z38	X39	Y39	Z39	X40	Y40	Z40	X41	Y41	Z41	X42	Y42	Z42	X43	Y43	Z43	X44	Y44	Z44	X45	Y45	Z45	X46	Y46	Z46	X47	Y47	Z47	X48	Y48	Z48	X49	Y49	Z49	X50	Y50	Z50	X51	Y51	Z51	X52	Y52	Z52	X53	Y53	Z53	X54	Y54	Z54	

493	4.92	436.1039428710938	987.0723876953125	572.2249145507812	545.136474609375	977.2003173828125	708.7228393554688	479.2705688476562	1059.849365234375	643.9369506835938	310.6324462890625	1243.942626953125	812.2572021484375	495.2215881347656	1175.757446289062	624.7057495117188	481.4743347167969	1420.708374023438	672.0972290039062	365.6782531738281	1338.548095703125	770.4243774414062	463.3929748535156	1287.21142578125	575.0595092773438	564.0198364257812	1379.270141601562	731.0280151367188	540.3854370117188	1385.219848632812	832.862060546875	621.0159912109375	1270.51416015625	847.5211181640625	641.635498046875	1068.594116210938	829.2423095703125	628.14306640625	1066.607421875	743.428955078125	574.028076171875	836.2720947265625	827.103271484375	644.3798217773438	829.0055541992188	837.5851440429688	648.53369140625	963.1632080078125	830.3661499023438	648.74365234375	742.0303344726562	821.3878784179688	586.539794921875	734.32421875	838.462890625	326.6997985839844	1405.94580078125	601.130859375	283.156005859375	1351.576049804688	547.462646484375	219.6366119384766	1095.1767578125	488.4493408203125	302.8758850097656	1071.452026367188	525.9500732421875	143.8485565185547	993.5032958984375	696.912109375	96.93875122070312	962.3900146484375	634.8578491210938	175.4815216064453	1056.426391601562	525.8186645507812	72.53668212890625	930.1065063476562	772.3622436523438	44.80960083007812	899.6690673828125	715.5466918945312	384.8434753417969	1593.826416015625	676.683349609375	329.5782165527344	1567.039672851562	881.0901489257812	268.6577453613281	1568.0263671875	807.7330932617188	479.3161010742188	1582.0615234375	789.3095703125	289.7559509277344	941.535888671875	556.3213500976562	244.4812164306641	953.4650268554688	686.0432739257812	413.1480407714844	957.625732421875	875.6484985351562	375.0145263671875	520.543701171875	987.5052490234375	431.6931762695312	646.9672241210938	952.0510864257812	522.2158203125	89.60955047607422	952.9094848632812	451.6044311523438	304.4278564453125	983.7300415039062	328.6009216308594	55.35292053222656	1027.774780273438	359.98876953125	43.27941513061523	954.5545043945312	434.7367858886719	68.10538482666016	1034.520629882812	524.4711303710938	86.11607360839844	879.1082763671875	307.2084655761719	470.3847045898438	664.6665649414062	252.4083404541016	728.5318603515625	624.431640625	423.6287536621094	43.57377624511719	616.9762573242188	332.6558837890625	344.9785461425781	687.0568237304688	392.0801391601562	40.19204711914062	816.0765991210938	452.3174743652344	35.55901336669922	777.1328125	361.0476989746094	34.72176742553711	703.6882934570312	487.3822631835938	37.35952758789062	588.02587890625	548.0279541015625	935.3843994140625	826.3394165039062	69.90658569335938	861.42529296875	806.4799194335938	593.8847045898438	655.5040283203125	795.0540771484375	nan	nan	nan	
494	4.93	435.1574401855469	986.4323120117188	579.2643432617188	542.24560546875	976.7029418945312	717.2440185546875	477.1734008789062	1059.463500976562	650.9414672851562	306.8173522949219	1243.686889648438	816.9600219726562	493.2221374511719	1175.080810546875	631.4638061523438	479.2351379394531	1420.000854492188	678.5523071289062	362.532470703125	1338.074340820312	775.6890869140625	461.9102783203125	1286.539916992188	581.4442138671875	561.2205810546875	1378.374633789062	738.1134643554688	536.768310546875	1384.39697265625	839.740966796875	617.381591796875	1269.766357421875	854.6724853515625	638.3010864257812	1068.024780273438	835.6128540039062	625.2003173828125	1066.330444335938	749.7411499023438	570.6546630859375	835.4522094726562	832.1358032226562	641.015625	828.3096313476562	843.3809204101562	645.2457885742188	962.5521240234375	836.5172729492188	645.5276489257812	741.3832397460938	827.0560302734375	583.2314453125	733.680419921875	843.7410278320312	325.1427001953125	1405.484130859375	606.10302734375	281.8468017578125	1351.266479492188	552.1002807617188	215.9869689941406	1095.37060546875	493.1090698242188	298.8800659179688	1070.814086914062	530.778076171875	139.7485504150391	996.6348876953125	702.7510375976562	92.32753753662109	965.6244506835938	641.386962890625	171.1523132324219	1057.378662109375	530.7002563476562	67.94615936279297	934.8958740234375	779.046142578125	39.38611602783203	904.381591796875	723.0900268554688	382.8138122558594	1593.401733398438	683.1931762695312	326.3212585449219	1565.917846679688	887.16357421875	265.8529968261719	1567.367553710938	813.4349975585938	476.6296081542969	1580.933837890625	796.2948608398438	288.9518432617188	940.9990844726562	561.272705078125	241.5789489746094	953.2384033203125	690.3215942382812	407.9710693359375	957.5980224609375	882.228759765625	368.9620666503906	520.2659301757812	993.6920776367188	425.8569641113281	646.653076171875	958.8829345703125	501.8678588867188	83.7000732421875	977.6365966796875	438.565185546875	301.8190612792969	998.86865234375	304.7775573730469	58.93807601928711	1046.539794921875	338.2416076660156	43.20767974853516	975.0856323242188	410.9845275878906	68.14162445068359	1056.698120117188	506.6225280761719	77.59622192382812	904.1776733398438	305.5906066894531	469.7462463378906	667.7902221679688	251.0683441162109	728.01611328125	628.2716674804688	423.7231140136719	43.65452575683594	617.09375	331.2873840332031	344.2077941894531	689.470458984375	392.0236511230469	40.12139892578125	816.096435546875	452.2477416992188	35.56344604492188	777.1170654296875	360.9803771972656	34.67600250244141	703.6637573242188	487.4954833984375	37.57323455810547	588.0532836914062	543.4816284179688	935.1563720703125	835.00146484375	64.56085968017578	866.53271484375	813.896240234375	590.7332153320312	654.911376953125	800.14599609375	nan	nan	nan	
495	4.94	434.002685546875	985.735107421875	586.3062133789062	539.243408203125	976.0757446289062	725.6392822265625	475.0364685058594	1058.783325195312	657.9503173828125	302.9918823242188	1243.302978515625	821.6761474609375	491.2010803222656	1174.180908203125	638.2747802734375	477.0115966796875	1419.112060546875	684.98046875	359.3702392578125	1337.483032226562	780.956298828125	460.4082336425781	1285.623413085938	587.89208984375	558.404541015625	1377.326049804688	745.2127075195312	533.1073608398438	1383.45458984375	846.6223754882812	613.6489868164062	1268.867553710938	861.9161987304688	634.8271484375	1067.2822265625	842.2241821289062	622.131103515625	1065.826416015625	756.2980346679688	567.1670532226562	834.4210815429688	837.4442749023438	637.5337524414062	827.4462890625	849.462158203125	641.8301391601562	961.77490234375	842.9390258789062	642.2369384765625	740.57666015625	832.9882202148438	579.804931640625	732.8484497070312	849.30126953125	323.6125793457031	1404.8173828125	611.021728515625	280.5928039550781	1350.747802734375	556.6716918945312	212.4837646484375	1095.36181640625	497.7299499511719	294.9932250976562	1070.003295898438	535.5875854492188	135.7745361328125	999.3329467773438	708.4364013671875	87.91921997070312	968.4275512695312	647.6650390625	166.9972686767578	1058.002563476562	535.46875	63.53082656860352	939.056640625	785.4020385742188	34.36207962036133	908.4007568359375	730.191650390625	380.7599487304688	1592.830322265625	689.6641235351562	323.0357055664062	1564.677124023438	893.1946411132812	263.05419921875	1566.587280273438	819.0845336914062	473.9208679199219	1579.670776367188	803.2406005859375	287.9606323242188	940.4393920898438	566.343505859375	238.5748291015625	952.958740234375	694.7422485351562	402.8730773925781	957.385009765625	888.7685546875	363.3789672851562	519.67919921875	999.8179321289062	420.4525756835938	646.0823364257812	965.6072387695312	480.822998046875	78.57888793945312	1001.725830078125	425.350341796875	299.3980102539062	1013.670043945312	280.6312255859375	62.97771453857422	1063.571411132812	316.1697692871094	43.82090759277344	994.1724853515625	386.6196899414062	68.75968933105469	1077.608032226562	488.1631469726562	69.95227813720703	928.7437744140625	303.9539184570312	469.0647583007812	670.845703125	249.5766448974609	727.4425659179688	632.1581420898438	423.8092651367188	43.72551345825195	617.1878051757812	329.953125	343.3925170898438	691.8275756835938	391.9792175292969	40.04605484008789	816.1197509765625	452.1847534179688	35.55952835083008	777.1069946289062	360.9147338867188	34.63560485839844	703.627685546875	487.6170654296875	37.77023696899414	588.0780029296875	538.9337158203125	934.7210083007812	843.5147705078125	59.43525695800781	870.9608154296875	820.8663940429688	587.492431640625	654.1458129882812	805.4979248046875	nan	nan	nan	
496	4.95	432.6479797363281	984.9743041992188	593.3540649414062	536.134765625	975.3070678710938	733.92236328125	472.8451843261719	1057.845703125	664.9830322265625	299.1651306152344	1242.78955078125	826.4181518554688	489.1587829589844	1173.064697265625	645.139892578125	474.8059692382812	1418.044677734375	691.3864135742188	356.188720703125	1336.76953125	786.2324829101562	458.8854064941406	1284.478149414062	594.3963623046875	555.5691528320312	1376.127319335938	752.3324584960938	529.4046020507812	1382.39013671875	853.5115356445312	609.8226928710938	1267.813842773438	869.2547607421875	631.2156372070312	1066.356201171875	849.0845947265625	618.9390258789062	1065.084594726562	763.1051635742188	563.574951171875	833.214111328125	843.0921630859375	633.9414672851562	826.4077758789062	855.8359375	638.2875366210938	960.8229370117188	849.6376953125	638.8599853515625	739.5997314453125	839.1841430664062	576.256591796875	731.8143310546875	855.1348876953125	322.0992126464844	1403.954956054688	615.9088745117188	279.3878173828125	1350.023315429688	561.1991577148438	209.1304168701172	1095.141235351562	502.3237915039062	291.2463684082031	1069.024536132812	540.4061279296875	131.916748046875	1001.588439941406	713.9837646484375	83.71947479248047	970.7556762695312	653.6906127929688	163.0474548339844	1058.314697265625	540.1597900390625	59.27607345581055	942.5792236328125	791.46875	29.73323059082031	911.6983032226562	736.853759765625	378.6685180664062	1592.11279296875	696.0989990234375	319.7230529785156	1563.318359375	899.1904296875	260.2467346191406	1565.681762695312	824.6931762695312	471.1817321777344	1578.279663085938	810.1492309570312	286.7754821777344	939.8651123046875	571.5325927734375	235.491455078125	952.6064453125	699.3076171875	397.8394775390625	956.9901123046875	895.2821044921875	358.2301330566406	518.81298828125	1005.940246582031	415.4814147949219	645.2606201171875	972.2792358398438	459.2095947265625	74.29158782958984	1025.0400390625	412.0272216796875	297.231201171875	1028.079956054688	256.372802734375	67.49441528320312	1078.865600585938	293.95458984375	45.12850189208984	1011.781555175781	361.8119201660156	69.99417877197266	1097.1767578125	469.197998046875	63.25154113769531	952.6752319335938	302.3081665039062	468.3496398925781	673.8279418945312	247.9361419677734	726.8181762695312	636.0968627929688	423.8844604492188	43.79086303710938	617.255615234375	328.6653442382812	342.5374145507812	694.1207275390625	391.9373474121094	39.97434234619141	816.141845703125	452.1286926269531	35.54930114746094	777.10205078125	360.8508605957031	34.59914016723633	703.5872192382812	487.7438354492188	37.95334243774414	588.1015014648438	534.3764038085938	934.0647583007812	851.8807373046875	54.53828811645508	874.7083129882812	827.43603515625	584.1660766601562	653.2020874023438	811.10546875	nan	nan	nan	
